<svg xmlns="http://www.w3.org/2000/svg" width="32" height="32" viewBox="0 0 32 32">
  <g fill="none" fill-rule="evenodd" transform="translate(2 1)">
    <path fill="#EFF1F3" d="M25.7574,6.7009 C23.4574,6.6339 18.4944,7.2379 16.5114,7.7089 C15.2594,8.0059 16.0404,4.0799 15.1654,4.1469 C14.3244,4.2119 13.8204,7.5069 12.6114,7.6409 C12.1054,7.6979 12.1734,5.1209 12.2064,2.9719 C12.2264,1.7429 11.3934,1.8959 10.2904,2.9379 C5.5284,7.5039 -0.9726,18.4679 0.6144,27.0869 C1.1364,29.9179 3.5174,28.7689 5.4024,29.0769 C6.7884,29.3049 9.0174,30.9079 9.7814,29.2749 C10.2584,28.2569 12.9804,18.1239 15.3004,17.9899 C15.5864,18.4939 15.7044,19.5669 16.6114,19.5349 C17.5864,19.5019 17.8564,16.8469 18.3604,16.8139 C18.8644,16.7809 18.8634,18.3599 19.9744,18.3599 C20.7144,18.3599 20.8484,16.1419 21.5544,16.1079 C22.2614,16.0749 22.7854,17.5889 23.3364,17.6539 C24.7274,17.9229 25.6754,14.1089 27.3714,9.2539 C28.1474,7.0369 27.0264,6.7379 25.7574,6.7009"/>
    <path fill="#D6ECF1" d="M27.1968,7.3483 C27.1018,7.1883 26.9378,7.0873 26.7758,7.0253 C26.6128,6.9623 26.4358,6.9323 26.2738,6.9183 C25.6098,6.8293 24.9428,6.8253 24.2768,6.8233 C22.9458,6.8393 21.6178,6.9383 20.2968,7.0793 C19.6348,7.1473 18.9748,7.2293 18.3158,7.3163 L17.3278,7.4533 L16.8348,7.5273 C16.6748,7.5503 16.4938,7.5813 16.3698,7.5933 C16.2418,7.6053 16.1298,7.5993 16.0518,7.5793 C15.9728,7.5593 15.9448,7.5303 15.9368,7.5123 C15.9228,7.4883 15.8648,7.3363 15.8808,7.0653 C15.8918,6.3703 15.8928,5.6723 15.8308,4.9393 C15.8048,4.6513 15.6318,4.3853 15.3548,4.2653 C14.9568,4.0913 14.4968,4.2833 14.3278,4.6943 L14.3118,4.7343 L14.3118,4.7353 C14.1498,5.1423 14.0238,5.4943 13.8768,5.8463 C13.7308,6.1933 13.5748,6.5243 13.3998,6.8153 C13.2298,7.1033 13.0268,7.3553 12.8638,7.4653 C12.7828,7.5223 12.7268,7.5413 12.6878,7.5433 C12.6518,7.5473 12.5818,7.5363 12.5548,7.5203 C12.5278,7.5043 12.4938,7.4803 12.4438,7.4023 C12.3958,7.3263 12.3448,7.2063 12.3048,7.0643 C12.2648,6.9213 12.2328,6.7573 12.2068,6.5793 C12.1798,6.3993 12.1568,6.2073 12.1368,6.0203 C12.0598,5.2643 12.0408,4.4823 12.0278,3.6823 L12.0258,3.6243 C12.0148,3.4203 11.9298,3.2213 11.7738,3.0723 C11.4558,2.7703 10.9608,2.7923 10.6688,3.1203 C9.2238,4.7423 7.8578,6.4403 6.6298,8.2413 C5.4008,10.0403 4.2958,11.9313 3.3838,13.9183 C2.4698,15.9013 1.7318,17.9713 1.2638,20.1063 C1.0288,21.1733 0.8698,22.2563 0.7848,23.3423 C0.7028,24.4253 0.6488,25.5183 0.7578,26.5993 C0.6868,25.5153 0.8078,24.4313 0.9458,23.3603 C1.0848,22.2873 1.3158,21.2323 1.6108,20.1993 C2.2028,18.1323 3.0548,16.1543 4.0678,14.2813 C5.0778,12.4053 6.2668,10.6403 7.5698,8.9733 C8.4918,7.7933 9.4778,6.6683 10.5078,5.5873 C10.5208,5.7873 10.5378,5.9893 10.5578,6.1923 C10.5808,6.4053 10.6048,6.6123 10.6368,6.8293 C10.6708,7.0493 10.7128,7.2823 10.7818,7.5253 C10.8508,7.7683 10.9458,8.0273 11.1088,8.2903 C11.2688,8.5513 11.5208,8.8203 11.8428,8.9853 C12.1668,9.1493 12.4958,9.2043 12.8468,9.1733 C13.1978,9.1403 13.5108,8.9933 13.7518,8.8243 C14.1628,8.5283 14.4238,8.1873 14.6398,7.8523 C14.7248,8.0833 14.8728,8.3353 15.0978,8.5233 C15.3408,8.7283 15.6338,8.8233 15.8818,8.8483 C16.1318,8.8743 16.3518,8.8473 16.5498,8.8083 C16.7508,8.7663 16.8918,8.7233 17.0558,8.6823 L17.5348,8.5603 L18.4918,8.3243 C19.1318,8.1723 19.7728,8.0233 20.4168,7.8893 C21.7028,7.6163 22.9968,7.3833 24.2998,7.2313 C24.9508,7.1663 25.6058,7.1023 26.2588,7.1233 C26.4258,7.1203 26.5798,7.1313 26.7308,7.1713 C26.8788,7.2123 27.0228,7.2823 27.1158,7.4083 C27.2108,7.5303 27.2568,7.6953 27.2598,7.8613 C27.2658,8.0283 27.2408,8.1983 27.2038,8.3643 C27.2568,8.2023 27.2988,8.0353 27.3098,7.8623 C27.3228,7.6893 27.2938,7.5043 27.1968,7.3483"/>
    <path fill="#3AC5E9" d="M26.481,6.3815 C27.758,6.4995 28.212,7.2215 27.91,8.4645 C27.502,10.1395 25.724,15.7475 25.021,17.0245 C24.65,17.6985 24.042,18.1315 23.241,18.0455 C22.4,17.9535 22.059,17.3385 21.628,16.7095 C21.149,17.3995 21.085,18.6225 20.264,19.0345 C19.345,19.4945 18.855,18.3795 18.479,17.7685 C18.156,18.5285 17.902,19.7035 17.09,20.1045 C15.97,20.6565 15.415,19.4855 14.996,18.6955 C13.201,19.7875 10.337,28.5485 10.173,29.0265 C10.16,29.0665 10.136,29.1105 10.108,29.1565 C9.937,29.4325 9.499,29.2875 9.528,28.9625 C9.53,28.9435 9.533,28.9255 9.538,28.9095 C10.563,24.9535 12.142,20.5435 13.158,18.8815 C13.547,18.2445 14.077,17.4575 14.864,17.2985 C15.822,17.1045 16.201,17.9685 16.56,18.6705 C16.909,17.8815 17.1,16.3475 18.104,16.0845 C19.046,15.8385 19.604,16.8025 19.894,17.5265 C20.176,16.9485 20.389,16.2085 20.877,15.7585 C21.393,15.2835 22.077,15.3895 22.502,15.9245 C22.801,16.3015 22.948,16.9935 23.546,16.9485 C24.088,16.9075 24.296,16.2025 24.491,15.7825 C25.003,14.6735 26.583,10.5615 27.204,8.3635 C27.422,7.5905 27.22,7.1035 26.41,7.0295 C23.33,6.7465 17.261,8.0415 16.625,8.1705 C16.221,8.2525 15.225,8.4285 15.187,7.1115 C15.168,6.4605 15.13,5.6975 15.044,5.0515 C14.664,5.9875 13.834,8.6785 12.419,8.3355 C11.644,8.1465 11.481,7.1685 11.394,6.5045 C11.272,5.5775 11.249,4.6285 11.234,3.6955 C7.731,7.3635 4.717,11.5645 2.739,16.2565 C0.648,21.2155 0.781,25.8415 0.757,26.5995 C0.746,26.9645 0.249,26.8975 0.223,26.6945 C-0.427,21.4005 0.378,17.6235 2.169,13.4285 C3.978,9.1915 6.651,5.3745 9.718,1.9555 C10.256,1.3565 10.822,0.6415 11.516,0.2145 C12.172,-0.1895 13.054,-0.0275 13.35,0.7475 C13.623,1.4625 13.299,2.3635 13.165,3.0715 C12.967,4.1035 12.812,5.1705 12.872,6.2245 C12.876,6.2935 12.965,6.3185 13.002,6.2615 C13.412,5.6345 13.724,4.9485 14.042,4.2735 C14.275,3.7775 14.61,2.9885 15.294,3.1295 C16.162,3.3065 16.117,4.7615 16.159,5.4175 C16.19,5.9095 16.203,6.4035 16.218,6.8975 C16.221,6.9975 16.311,7.0715 16.41,7.0565 C19.508,6.5895 23.929,6.1465 26.481,6.3815 Z M15.6392,10.9352 C15.5112,11.4522 14.8402,11.7312 14.1412,11.5592 C13.4422,11.3862 12.9792,10.8272 13.1072,10.3102 C13.2352,9.7932 13.9052,9.5132 14.6042,9.6862 C15.3032,9.8592 15.7662,10.4182 15.6392,10.9352 Z"/>
  </g>
</svg>
